<?xml version="1.0" ?><svg data-name="Layer 17" id="Layer_17" viewBox="0 0 32 32" xmlns="http://www.w3.org/2000/svg"><title/><path d="M7.5,21a4.5,4.5,0,0,1-.21-8.99A7,7,0,1,1,20.96,9.36,5.762,5.762,0,0,1,23,9a6,6,0,0,1,0,12H7.5Z" style="fill:#a9e5ff"/><path d="M29.083,15.014a1,1,0,0,0-1.152.82A4.984,4.984,0,0,1,23,20H7.5a3.5,3.5,0,0,1-.164-6.991,1,1,0,0,0,.912-1.284A6.071,6.071,0,0,1,8,10a6.01,6.01,0,0,1,7.711-5.754,1,1,0,0,0,.566-1.918A8.01,8.01,0,0,0,6,10a8.144,8.144,0,0,0,.087,1.188,5.493,5.493,0,0,0-2.042,9.586,0.974,0.974,0,0,0,.018.578l1.5,4a1,1,0,1,0,1.873-.7L6.4,21.889A5.5,5.5,0,0,0,7.5,22h6.807l1.258,3.354a1,1,0,1,0,1.873-.7L16.443,22H23a7.089,7.089,0,0,0,1.264-.113l1.3,3.467a1,1,0,1,0,1.873-.7l-1.277-3.4A6.971,6.971,0,0,0,29.9,16.166,1,1,0,0,0,29.083,15.014Z" style="fill:#158fcc"/><path d="M8.56,27.644a1,1,0,1,0-1.873.7l0.377,1a1,1,0,1,0,1.873-.7Z" style="fill:#158fcc"/><path d="M28.563,27.652a1,1,0,1,0-1.873.7l0.374,1a1,1,0,1,0,1.873-.7Z" style="fill:#158fcc"/><path d="M18.563,27.652a1,1,0,1,0-1.873.7l0.374,1a1,1,0,1,0,1.873-.7Z" style="fill:#158fcc"/><path d="M11.929,23.629a1,1,0,1,0-1.857.742l0.8,2a1,1,0,1,0,1.857-.742Z" style="fill:#158fcc"/><path d="M21.929,23.629a1,1,0,1,0-1.857.742l0.8,2a1,1,0,1,0,1.857-.742Z" style="fill:#158fcc"/><path d="M28.658,9.3l-2.332.625L24.721,9l1.605-.927L28.658,8.7a1,1,0,0,0,.518-1.932l-1.767-.473,0.474-1.766a1,1,0,1,0-1.932-.518L25.326,6.341l-1.605.927V5.414l1.707-1.707a1,1,0,0,0-1.414-1.414L22.721,3.586,21.428,2.293a1,1,0,0,0-1.414,1.414l1.707,1.707V7.268l-1.605-.927L19.49,4.009a1,1,0,0,0-1.932.518l0.474,1.766-1.767.473A1,1,0,1,0,16.783,8.7l2.332-.625L20.72,9l-1.605.927L16.783,9.3a1,1,0,1,0-.518,1.932l1.767,0.473-0.474,1.766a1,1,0,1,0,1.932.518l0.625-2.331,1.605-.927v1.854l-1.707,1.707a1,1,0,0,0,1.414,1.414l1.293-1.293,1.293,1.293a1,1,0,0,0,1.414-1.414l-1.707-1.707V10.732l1.605,0.927,0.625,2.331a1,1,0,0,0,.965.742,1.016,1.016,0,0,0,.26-0.035,1,1,0,0,0,.707-1.225l-0.474-1.766,1.767-.473A1,1,0,0,0,28.658,9.3Z" style="fill:#158fcc"/></svg>